<?xml version="1.0" encoding="utf-8"?>
<!-- Generator: Adobe Illustrator 17.0.0, SVG Export Plug-In . SVG Version: 6.00 Build 0)  -->
<!DOCTYPE svg PUBLIC "-//W3C//DTD SVG 1.1//EN" "http://www.w3.org/Graphics/SVG/1.1/DTD/svg11.dtd">
<svg version="1.1"
	 id="svg2" sodipodi:docname="barcode_code128.svg" inkscape:version="0.48.4 r9939" xmlns:svg="http://www.w3.org/2000/svg" xmlns:rdf="http://www.w3.org/1999/02/22-rdf-syntax-ns#" xmlns:cc="http://creativecommons.org/ns#" xmlns:inkscape="http://www.inkscape.org/namespaces/inkscape" xmlns:sodipodi="http://sodipodi.sourceforge.net/DTD/sodipodi-0.dtd" xmlns:dc="http://purl.org/dc/elements/1.1/"
	 xmlns="http://www.w3.org/2000/svg" xmlns:xlink="http://www.w3.org/1999/xlink" x="0px" y="0px" width="20px" height="20px"
	 viewBox="0 0 20 20" enable-background="new 0 0 20 20" xml:space="preserve">
<sodipodi:namedview  inkscape:window-x="729" fit-margin-right="0" inkscape:current-layer="svg2" inkscape:window-height="873" inkscape:window-width="798" inkscape:window-maximized="0" inkscape:pageopacity="0.0" inkscape:window-y="61" inkscape:document-units="px" inkscape:pageshadow="2" fit-margin-bottom="0" pagecolor="#ffffff" fit-margin-left="0" borderopacity="1.0" inkscape:cx="140.43121" bordercolor="#666666" showgrid="false" fit-margin-top="0" inkscape:cy="141.20825" inkscape:zoom="2.8401997" id="base">
	</sodipodi:namedview>
<title  id="title4066">barcode code128</title>
<g id="layer1" transform="translate(2043.7956,-456.49609)" inkscape:groupmode="layer" inkscape:label="Layer 1">
</g>
<g id="barcode" transform="matrix(4.4444444,0,0,4.4444444,-284.44444,13.333333)">
	<polygon id="barcode_bar1" fill="#FFFFFF" points="64.245,-3 64.334,-3 64.129,0.946 64.03,0.946 	"/>
	<polygon id="barcode_bar3" fill="#FFFFFF" points="64.379,-3 64.424,-3 64.228,0.946 64.178,0.946 	"/>
	<polygon id="barcode_bar5" fill="#FFFFFF" points="64.513,-3 64.646,-3 64.474,0.946 64.326,0.946 	"/>
	<polygon id="barcode_bar7" fill="#FFFFFF" points="64.735,-3 64.78,-3 64.622,0.946 64.573,0.946 	"/>
	<polygon id="barcode_bar9" fill="#FFFFFF" points="64.824,-3 64.914,-3 64.77,0.946 64.672,0.946 	"/>
	<polygon id="barcode_bar11" fill="#FFFFFF" points="65.003,-3 65.136,-3 65.017,0.946 64.869,0.946 	"/>
	<polygon id="barcode_bar13" fill="#FFFFFF" points="65.225,-3 65.27,-3 65.165,0.946 65.115,0.946 	"/>
	<polygon id="barcode_bar15" fill="#FFFFFF" points="65.404,-3 65.448,-3 65.362,0.946 65.313,0.946 	"/>
	<polygon id="barcode_bar17" fill="#FFFFFF" points="65.493,-3 65.582,-3 65.51,0.946 65.411,0.946 	"/>
	<polygon id="barcode_bar19" fill="#FFFFFF" points="65.715,-3 65.849,-3 65.806,0.946 65.658,0.946 	"/>
	<polygon id="barcode_bar21" fill="#FFFFFF" points="65.983,-3 66.027,-3 66.003,0.946 65.954,0.946 	"/>
	<polygon id="barcode_bar23" fill="#FFFFFF" points="66.072,-3 66.161,-3 66.151,0.946 66.053,0.946 	"/>
	<polygon id="barcode_bar25" fill="#FFFFFF" points="66.205,-3 66.295,-3 66.299,0.946 66.201,0.946 	"/>
	<polygon id="barcode_bar27" fill="#FFFFFF" points="66.473,-3 66.517,-3 66.546,0.946 66.497,0.946 	"/>
	<polygon id="barcode_bar29" fill="#FFFFFF" points="66.562,-3 66.606,-3 66.645,0.946 66.595,0.946 	"/>
	<polygon id="barcode_bar31" fill="#FFFFFF" points="66.695,-3 66.785,-3 66.842,0.946 66.743,0.946 	"/>
	<polygon id="barcode_bar33" fill="#FFFFFF" points="66.829,-3 67.007,-3 67.089,0.946 66.891,0.946 	"/>
	<polygon id="barcode_bar35" fill="#FFFFFF" points="67.052,-3 67.141,-3 67.237,0.946 67.138,0.946 	"/>
	<polygon id="barcode_bar37" fill="#FFFFFF" points="67.186,-3 67.23,-3 67.335,0.946 67.286,0.946 	"/>
	<polygon id="barcode_bar39" fill="#FFFFFF" points="67.319,-3 67.497,-3 67.631,0.946 67.434,0.946 	"/>
	<polygon id="barcode_bar41" fill="#FFFFFF" points="67.586,-3 67.631,-3 67.779,0.946 67.73,0.946 	"/>
	<polygon id="barcode_bar43" fill="#FFFFFF" points="67.676,-3 67.765,-3 67.927,0.946 67.828,0.946 	"/>
	<polygon id="barcode_bar45" fill="#FFFFFF" points="67.898,-3 68.032,-3 68.223,0.946 68.075,0.946 	"/>
	<polygon id="barcode_bar47" fill="#FFFFFF" points="68.077,-3 68.121,-3 68.322,0.946 68.272,0.946 	"/>
	<polygon id="barcode_bar49" fill="#FFFFFF" points="68.166,-3 68.255,-3 68.47,0.946 68.371,0.946 	"/>
	<g enable-background="new    ">
		<path fill="#FFFFFF" d="M64.86,1.449l0.003-0.102c0-0.014,0.007-0.026,0.023-0.026s0.022,0.01,0.021,0.026l-0.004,0.126
			C64.902,1.492,64.891,1.5,64.88,1.5h-0.177c-0.012,0-0.022-0.007-0.021-0.026c0.001-0.019,0.012-0.026,0.023-0.026h0.066
			l0.01-0.289h-0.065c-0.012,0-0.022-0.007-0.021-0.025c0.001-0.019,0.012-0.025,0.023-0.025h0.11l-0.012,0.339h0.044L64.86,1.449z"
			/>
		<path fill="#FFFFFF" d="M65.052,1.449h0.155c0.012,0,0.022,0.007,0.021,0.026c0,0.019-0.012,0.025-0.023,0.025h-0.2l0.005-0.164
			c0.001-0.038,0.019-0.057,0.052-0.057h0.125l0.003-0.118h-0.154c-0.012,0-0.022-0.007-0.021-0.025
			c0.001-0.019,0.012-0.025,0.023-0.025h0.148c0.015,0,0.025,0.002,0.035,0.014c0.013,0.013,0.013,0.026,0.013,0.044L65.232,1.27
			c0,0.018-0.002,0.031-0.015,0.044c-0.011,0.011-0.022,0.014-0.036,0.014h-0.125L65.052,1.449L65.052,1.449z"/>
		<path fill="#FFFFFF" d="M65.358,1.16c-0.012,0-0.022-0.007-0.021-0.025c0-0.019,0.011-0.024,0.022-0.024h0.154
			c0.026,0,0.044,0.021,0.044,0.05l-0.002,0.095c0,0.02-0.005,0.034-0.019,0.049c0.014,0.014,0.017,0.029,0.017,0.049l-0.002,0.096
			c0,0.029-0.02,0.05-0.046,0.05h-0.155c-0.012,0-0.022-0.007-0.021-0.026c0-0.019,0.012-0.026,0.023-0.026h0.155l0.001-0.083
			c0-0.028-0.009-0.037-0.021-0.037H65.4c-0.012,0-0.022-0.007-0.021-0.026c0-0.019,0.011-0.026,0.022-0.026h0.088
			c0.013,0,0.022-0.009,0.023-0.037l0.001-0.081H65.358L65.358,1.16z"/>
		<path fill="#FFFFFF" d="M65.81,1.322l0.002-0.144c0-0.012,0.005-0.025,0.022-0.025c0.017,0,0.022,0.012,0.022,0.025l-0.001,0.144
			c0.012,0,0.022,0.007,0.022,0.026c0,0.019-0.011,0.026-0.022,0.026l-0.001,0.103c0,0.016-0.006,0.026-0.022,0.026
			c-0.016,0-0.022-0.009-0.022-0.026l0.001-0.104h-0.132l0.003-0.237c0-0.012,0.005-0.025,0.022-0.025s0.022,0.012,0.021,0.025
			l-0.002,0.186L65.81,1.322L65.81,1.322z"/>
		<path fill="#FFFFFF" d="M66.067,1.279h0.083c0.014,0,0.025,0.002,0.036,0.014c0.013,0.013,0.014,0.026,0.014,0.042l0,0.108
			c0,0.016-0.001,0.027-0.011,0.039C66.177,1.498,66.165,1.5,66.149,1.5h-0.1c-0.012,0-0.018-0.003-0.03-0.009l-0.017-0.009
			c-0.012-0.006-0.026-0.01-0.026-0.028c0-0.013,0.01-0.026,0.022-0.026c0.005,0,0.009,0.001,0.014,0.004l0.013,0.007
			c0.006,0.003,0.017,0.01,0.024,0.01h0.104l0-0.121h-0.132l0.001-0.218h0.154c0.012,0,0.022,0.007,0.022,0.025
			c0,0.019-0.011,0.025-0.022,0.025h-0.109L66.067,1.279L66.067,1.279z"/>
		<path fill="#FFFFFF" d="M66.346,1.322h0.149c0.022,0,0.027,0.01,0.027,0.033l0.001,0.113c0,0.024-0.009,0.031-0.029,0.031H66.33
			c-0.021,0-0.029-0.009-0.029-0.031l0-0.333c0-0.011,0.004-0.025,0.019-0.025h0.027c0.012,0,0.021,0.012,0.021,0.025
			c0,0.014-0.009,0.025-0.022,0.025L66.346,1.322z M66.346,1.372l0,0.077h0.132l0-0.077H66.346L66.346,1.372z"/>
		<path fill="#FFFFFF" d="M66.667,1.16c0,0.011-0.008,0.025-0.022,0.025s-0.022-0.014-0.022-0.025l0-0.025
			c0-0.011,0.008-0.025,0.022-0.025h0.198l0.002,0.145c0,0.018,0,0.02-0.011,0.031l-0.062,0.06c-0.012,0.011-0.013,0.012-0.013,0.03
			l0.001,0.097c0,0.016-0.006,0.026-0.022,0.026s-0.022-0.009-0.022-0.026l-0.001-0.12c0-0.017,0-0.018,0.012-0.029l0.061-0.06
			C66.802,1.25,66.801,1.25,66.8,1.229L66.799,1.16H66.667L66.667,1.16z"/>
		<path fill="#FFFFFF" d="M67.096,1.111c0.015,0,0.023,0.012,0.023,0.025l0.003,0.144c0.014,0,0.025,0.006,0.033,0.014
			c0.008,0.009,0.012,0.021,0.013,0.037l0.003,0.119c0.001,0.03-0.016,0.05-0.044,0.05h-0.132c-0.028,0-0.045-0.02-0.046-0.05
			L66.947,1.33c0-0.016,0.004-0.028,0.011-0.037c0.008-0.009,0.019-0.014,0.033-0.014l-0.003-0.144c0-0.013,0.006-0.025,0.021-0.025
			L67.096,1.111L67.096,1.111z M67.125,1.449l-0.003-0.121h-0.131l0.002,0.121H67.125z M67.077,1.279L67.074,1.16h-0.042l0.002,0.12
			L67.077,1.279L67.077,1.279z"/>
		<path fill="#FFFFFF" d="M67.444,1.288H67.29c-0.013,0-0.022-0.012-0.023-0.026l-0.003-0.127c0-0.013,0.009-0.025,0.021-0.025
			h0.175c0.013,0,0.022,0.012,0.023,0.025l0.01,0.339c0,0.013-0.008,0.026-0.021,0.026H67.45c-0.014,0-0.022-0.011-0.023-0.026
			c0-0.015,0.008-0.026,0.021-0.026L67.444,1.288L67.444,1.288z M67.442,1.238L67.44,1.16h-0.131l0.002,0.077H67.442z"/>
		<path fill="#FFFFFF" d="M67.76,1.111c0.025,0,0.045,0.022,0.046,0.05l0.011,0.289C67.818,1.477,67.8,1.5,67.774,1.5h-0.132
			c-0.026,0-0.046-0.022-0.047-0.05L67.586,1.16c-0.001-0.028,0.018-0.05,0.043-0.05H67.76L67.76,1.111z M67.772,1.449L67.761,1.16
			H67.63l0.01,0.289H67.772z"/>
	</g>
</g>
</svg>
