<?xml version="1.0" encoding="utf-8"?>
<!-- Generator: Adobe Illustrator 17.0.0, SVG Export Plug-In . SVG Version: 6.00 Build 0)  -->
<!DOCTYPE svg PUBLIC "-//W3C//DTD SVG 1.1//EN" "http://www.w3.org/Graphics/SVG/1.1/DTD/svg11.dtd">
<svg version="1.1" id="Layer_1" xmlns="http://www.w3.org/2000/svg" xmlns:xlink="http://www.w3.org/1999/xlink" x="0px" y="0px"
	 width="20px" height="20px" viewBox="0 0 20 20" enable-background="new 0 0 20 20" xml:space="preserve">
<path fill="#FFFFFF" d="M19.706,10c0,5-4.157,9.147-9.265,9.147c-4.589,0-8.323-3.964-8.323-8.553c0-4.122,3.353-7.419,7.476-7.419
	c3.702,0,6.714,3.039,6.714,6.741c0,3.323-2.705,6.042-6.028,6.042c-2.983,0-5.409-2.42-5.409-5.404c0-2.676,2.177-4.85,4.854-4.85
	c2.401,0,4.356,1.955,4.356,4.355c0,1.455-0.81,2.713-1.994,3.385c1.473-0.882,2.239-2.667,1.734-4.39
	c-0.661-2.259-3.026-3.561-5.299-2.902C7.31,6.506,6.31,7.31,5.704,8.417S4.96,10.8,5.314,12.01
	c0.808,2.763,3.722,4.356,6.479,3.546c3.058-0.893,4.818-4.109,3.924-7.167c-0.988-3.383-4.547-5.332-7.933-4.344
	c-3.749,1.096-5.906,5.037-4.81,8.785c0.588,2.011,1.924,3.673,3.762,4.68c1.172,0.641,2.458,0.968,3.757,0.968
	c0.739,0,1.482-0.107,2.211-0.32c4.601-1.345,7.249-6.182,5.903-10.781C17.116,2.28,11.761-0.656,6.658,0.835L6.782,1.26
	c4.867-1.422,9.978,1.378,11.401,6.241c1.276,4.365-1.237,8.956-5.603,10.234c-1.9,0.55-3.898,0.336-5.632-0.612
	c-1.734-0.951-2.995-2.518-3.549-4.416C2.371,9.192,4.394,5.498,7.907,4.47c3.155-0.92,6.465,0.893,7.386,4.043
	c0.825,2.825-0.801,5.793-3.624,6.62c-0.829,0.242-1.668,0.228-2.453,0.037c1.239,0.247,2.491,0.005,3.547-0.682
	c2.446-1.597,3.139-4.886,1.541-7.331c-1.764-2.703-5.399-3.468-8.1-1.703c-2.987,1.95-3.831,5.966-1.882,8.953
	c1.044,1.6,2.65,2.699,4.521,3.092c0.494,0.104,0.992,0.156,1.486,0.156c1.374,0,2.719-0.398,3.896-1.165
	c3.656-2.385,4.69-7.302,2.303-10.959c-2.639-4.047-8.081-5.192-12.13-2.55c-4.482,2.925-5.749,8.952-2.824,13.433l0.494-0.323
	C-0.679,11.882,0.511,6.222,4.72,3.475c3.775-2.464,8.85-1.395,11.313,2.379c2.208,3.385,1.252,7.934-2.132,10.141
	c-1.469,0.959-3.222,1.285-4.939,0.928c-1.716-0.362-3.189-1.368-4.148-2.838C3.045,11.37,3.812,7.72,6.527,5.948
	c2.428-1.584,5.698-0.899,7.283,1.531c0.687,1.053,0.923,2.31,0.664,3.54c-0.258,1.23-0.981,2.286-2.034,2.973
	c-0.942,0.615-2.067,0.825-3.163,0.593c-1.1-0.23-2.044-0.876-2.658-1.818c-0.548-0.84-0.737-1.843-0.53-2.825
	C6.295,8.96,6.871,8.118,7.712,7.57C8.338,7.162,9.05,7.001,9.744,7.044c-1.86,0.037-3.363,1.555-3.363,3.422
	c0,2.092,1.702,3.794,3.794,3.794c2.316,0,4.199-1.881,4.199-4.197c0-2.563-2.086-4.646-4.65-4.646
	c-2.839,0-5.149,2.315-5.149,5.154c0,3.146,2.559,5.715,5.705,5.715c3.486,0,6.322-2.815,6.322-6.301
	c0-3.865-3.143-6.966-7.007-6.966c-4.285,0-7.771,3.571-7.771,7.855c0,4.752,3.866,8.565,8.618,8.565C15.712,19.441,20,15,20,10
	H19.706z M11.48,12.679c-0.595,0.387-1.302,0.523-1.999,0.374c-0.695-0.145-1.291-0.553-1.68-1.148
	C7.23,11.029,7.326,9.917,7.947,9.142c-0.239,0.363-0.381,0.796-0.381,1.262c0,1.4,1.139,2.539,2.54,2.539
	c0.918,0,1.726-0.449,2.238-1.132C12.121,12.152,11.832,12.449,11.48,12.679z M12.421,9.105c-0.014-0.032-0.024-0.066-0.039-0.097
	C12.395,9.04,12.408,9.073,12.421,9.105z M11.773,13.615c-0.064,0.029-0.129,0.053-0.194,0.079
	C11.644,13.667,11.711,13.645,11.773,13.615z M13.397,9.178c0.256,0.878,0.156,1.803-0.284,2.606
	c-0.178,0.325-0.413,0.602-0.676,0.847c0.452-0.475,0.773-1.06,0.911-1.717c0.197-0.936,0.017-1.89-0.504-2.691
	c-0.74-1.133-1.969-1.759-3.231-1.784C11.309,6.394,12.9,7.474,13.397,9.178z M9.59,6.439C9.472,6.437,9.354,6.458,9.236,6.468
	C9.354,6.452,9.472,6.443,9.59,6.439z M8.697,15.02c0.13,0.041,0.256,0.093,0.391,0.123C8.955,15.107,8.826,15.067,8.697,15.02z
	 M9.814,7.332c1.093,0,2.034,0.635,2.498,1.55c-0.643-1.135-2.004-1.729-3.307-1.348C8.192,7.772,7.519,8.313,7.112,9.057
	s-0.5,1.602-0.262,2.415c0.064,0.218,0.149,0.427,0.251,0.625c-0.26-0.489-0.422-1.039-0.422-1.631
	C6.678,8.738,8.086,7.332,9.814,7.332z M7.425,12.601c-0.114-0.146-0.213-0.301-0.303-0.464C7.209,12.301,7.314,12.454,7.425,12.601
	z M7.571,12.778c0.083,0.095,0.172,0.184,0.265,0.27C7.742,12.963,7.655,12.873,7.571,12.778z M8.86,13.703
	c-0.03-0.012-0.059-0.025-0.089-0.038C8.8,13.679,8.83,13.691,8.86,13.703z M8.326,13.423c-0.07-0.044-0.138-0.091-0.205-0.14
	C8.187,13.333,8.256,13.378,8.326,13.423z"/>
</svg>
