<?xml version="1.0" encoding="utf-8"?>
<!-- Generator: Adobe Illustrator 17.0.0, SVG Export Plug-In . SVG Version: 6.00 Build 0)  -->
<!DOCTYPE svg PUBLIC "-//W3C//DTD SVG 1.1//EN" "http://www.w3.org/Graphics/SVG/1.1/DTD/svg11.dtd">
<svg version="1.1" id="Layer_1" xmlns="http://www.w3.org/2000/svg" xmlns:xlink="http://www.w3.org/1999/xlink" x="0px" y="0px"
	 width="10px" height="10px" viewBox="0 0 10 10" enable-background="new 0 0 10 10" xml:space="preserve">
<path d="M5,2.025C3.357,2.025,2.025,3.357,2.025,5S3.357,7.975,5,7.975S7.975,6.643,7.975,5S6.643,2.025,5,2.025z M6.816,3.973
	c-0.207,0.249-0.628,0.24-0.94-0.02S5.48,3.282,5.687,3.033s0.628-0.24,0.94,0.019S7.024,3.724,6.816,3.973z"/>
<ellipse transform="matrix(0.7685 0.6398 -0.6398 0.7685 4.097 -2.3177)" cx="5.252" cy="4.503" rx="0.735" ry="0.586"/>
<path opacity="0.2" fill="#292929" d="M5,0C2.239,0,0,2.239,0,5s2.239,5,5,5s5-2.239,5-5S7.761,0,5,0z M8.765,2.978
	C8.475,3.327,7.886,3.314,7.449,2.95C7.012,2.586,6.895,2.011,7.184,1.662C7.474,1.313,8.064,1.326,8.5,1.689
	C8.937,2.051,9.056,2.63,8.765,2.978z"/>
</svg>
