<?xml version="1.0" encoding="utf-8"?>
<!-- Generator: Adobe Illustrator 17.0.0, SVG Export Plug-In . SVG Version: 6.00 Build 0)  -->
<!DOCTYPE svg PUBLIC "-//W3C//DTD SVG 1.1//EN" "http://www.w3.org/Graphics/SVG/1.1/DTD/svg11.dtd">
<svg version="1.1" id="Layer_1" xmlns="http://www.w3.org/2000/svg" xmlns:xlink="http://www.w3.org/1999/xlink" x="0px" y="0px"
	 width="20px" height="20px" viewBox="0 0 20 20" enable-background="new 0 0 20 20" xml:space="preserve">
<path d="M2.256,2.414c1.549,2.509,3.097,2.76,4.646,2.108c-0.034,4.237-0.067,8.474-0.101,12.712
	c-1.599,0.674-3.199,0.415-4.798-2.176C2.088,10.843,2.172,6.629,2.256,2.414z"/>
<path d="M7.658,7.301c1.561-0.923,3.123-2.529,4.684-3.453c0.025,4.196,0.051,8.391,0.076,12.587
	C10.806,17.389,9.194,19.047,7.582,20C7.607,15.767,7.633,11.534,7.658,7.301z"/>
<path d="M13.097,0.307c1.549-0.652,3.097-0.401,4.646,2.108c0.084,4.214,0.169,8.428,0.253,12.643
	c-1.599-2.591-3.199-2.85-4.798-2.176C13.165,8.689,13.131,4.498,13.097,0.307z"/>
</svg>
