<?xml version="1.0" encoding="utf-8"?>
<!-- Generator: Adobe Illustrator 17.0.0, SVG Export Plug-In . SVG Version: 6.00 Build 0)  -->
<!DOCTYPE svg PUBLIC "-//W3C//DTD SVG 1.1//EN" "http://www.w3.org/Graphics/SVG/1.1/DTD/svg11.dtd">
<svg version="1.1" id="Layer_1" xmlns="http://www.w3.org/2000/svg" xmlns:xlink="http://www.w3.org/1999/xlink" x="0px" y="0px"
	 width="10px" height="10px" viewBox="0 0 10 10" enable-background="new 0 0 10 10" xml:space="preserve">
<path fill="#FFFFFF" d="M2.731,7.592C3.309,7.84,3.888,7.99,4.504,7.971c1.165-0.036,2.018-0.571,2.515-1.629
	c0.58-1.234-0.341-2.866-1.709-3.056c-0.682-0.095-1.307,0.027-1.82,0.517C2.906,4.361,2.891,5.342,3.473,5.82
	c0.181,0.149,0.43,0.215,0.7,0.344C4.161,6.031,4.165,5.989,4.152,5.953C4.123,5.874,4.086,5.799,4.052,5.722
	C3.775,5.095,3.876,4.6,4.326,4.381c0.595-0.289,1.302-0.056,1.595,0.525c0.403,0.799-0.016,1.813-0.9,2.177
	C4.095,7.465,2.786,7.164,2.138,6.407c-0.487-0.57-0.598-1.24-0.468-1.962c0.04-0.22,0.088-0.438,0.13-0.643
	c-0.319-0.095-0.614-0.159-0.891-0.27C0.091,3.203-0.248,2.166,0.197,1.399c0.315-0.542,1.266-0.764,1.786-0.417
	C2.294,1.19,2.441,1.797,2.271,2.169C2.117,2.504,1.6,2.688,1.17,2.544C0.999,2.486,0.841,2.387,0.677,2.307
	C0.684,3.104,1.69,3.746,2.388,3.361C2.125,3.271,1.882,3.187,1.64,3.103c0-0.021-0.001-0.042-0.001-0.064
	c0.408-0.058,0.817-0.116,1.089-0.466C3,2.224,3.051,1.827,2.952,1.406C2.758,0.58,2.088,0.235,0.978,0.386
	C1.607-0.049,2.836-0.204,3.493,0.39c0.326,0.296,0.468,0.667,0.449,1.102C3.937,1.618,3.924,1.742,3.91,1.92
	c0.671,0,1.328,0,2.025,0c0-0.062-0.002-0.175,0-0.288C5.955,0.866,6.29,0.399,7.031,0.195c0.724-0.199,1.424-0.111,2.107,0.314
	c-0.313-0.015-0.583-0.05-0.851-0.037C7.658,0.504,7.208,0.848,6.955,1.4C6.602,2.17,7.111,3.008,7.971,3.134
	c0.072,0.01,0.143,0.023,0.215,0.034c0.006,0.029,0.011,0.057,0.017,0.086C7.95,3.328,7.697,3.403,7.461,3.472
	c0.194,0.195,0.817,0.169,1.229-0.077c0.4-0.239,0.561-0.554,0.447-0.929C8.865,2.729,8.554,2.822,8.191,2.733
	C7.729,2.621,7.506,2.332,7.537,1.861c0.029-0.453,0.35-0.816,0.77-0.855c0.481-0.044,0.934-0.004,1.304,0.372
	c0.514,0.523,0.521,1.285,0.01,1.858C9.24,3.664,8.772,3.881,8.2,3.876C8.143,3.875,8.085,3.883,8.079,3.884
	c0.023,0.528,0.089,1.044,0.06,1.554C8.072,6.621,7.536,7.562,6.465,8.095C5.274,8.687,4.091,8.562,2.976,7.837
	C2.92,7.801,2.873,7.751,2.825,7.704C2.791,7.67,2.762,7.63,2.731,7.592z"/>
<g>
</g>
<g>
</g>
<g>
</g>
<g>
</g>
<g>
</g>
<g>
</g>
<g>
</g>
<g>
</g>
<g>
</g>
<g>
</g>
<g>
</g>
<g>
</g>
<g>
</g>
<g>
</g>
<g>
</g>
</svg>
