<?xml version="1.0" encoding="utf-8"?>
<!-- Generator: Adobe Illustrator 17.0.0, SVG Export Plug-In . SVG Version: 6.00 Build 0)  -->
<!DOCTYPE svg PUBLIC "-//W3C//DTD SVG 1.1//EN" "http://www.w3.org/Graphics/SVG/1.1/DTD/svg11.dtd">
<svg version="1.1" id="Layer_1" xmlns="http://www.w3.org/2000/svg" xmlns:xlink="http://www.w3.org/1999/xlink" x="0px" y="0px"
	 width="20px" height="20px" viewBox="0 0 20 20" enable-background="new 0 0 20 20" xml:space="preserve">
<path fill="#FFFFFF" d="M9.632,19.647c-2.065,0-4.079-0.749-5.814-2.186c-1.824-1.511-3.047-3.782-3.445-6.397
	c-0.397-2.613,0.08-5.255,1.342-7.439c2.117-3.662,6.327-4.58,9.387-2.046c1.208,1.001,2.018,2.505,2.281,4.236
	s-0.053,3.48-0.889,4.926c-1.412,2.446-4.221,3.055-6.264,1.365c-1.679-1.392-2.1-4.161-0.938-6.171
	c0.963-1.664,2.876-2.082,4.265-0.929c1.158,0.96,1.448,2.869,0.647,4.256c-0.673,1.165-2.012,1.458-2.987,0.651
	c-0.4-0.331-0.668-0.829-0.755-1.401s0.018-1.152,0.294-1.631l0.842,0.698C7.48,7.79,7.434,8.043,7.472,8.294
	c0.038,0.25,0.155,0.468,0.33,0.613c0.509,0.423,1.21,0.269,1.561-0.341c0.48-0.831,0.306-1.975-0.388-2.55
	C8.05,5.249,6.777,5.528,6.136,6.635C5.294,8.089,5.599,10.092,6.814,11.1c1.576,1.308,3.747,0.831,4.839-1.055
	c0.68-1.177,0.937-2.601,0.723-4.008c-0.214-1.408-0.873-2.632-1.856-3.447C7.927,0.438,4.354,1.218,2.558,4.324
	c-1.107,1.914-1.524,4.231-1.176,6.522s1.421,4.283,3.02,5.607c2.026,1.679,4.476,2.311,6.905,1.786
	c2.425-0.529,4.533-2.157,5.936-4.583l0.842,0.697c-1.558,2.697-3.901,4.505-6.595,5.092C10.87,19.58,10.249,19.647,9.632,19.647z"
	/>
<g>
</g>
<g>
</g>
<g>
</g>
<g>
</g>
<g>
</g>
<g>
</g>
<g>
</g>
<g>
</g>
<g>
</g>
<g>
</g>
<g>
</g>
<g>
</g>
<g>
</g>
<g>
</g>
<g>
</g>
</svg>
